<?xml version="1.0" standalone="no"?>
<!DOCTYPE svg PUBLIC "-//W3C//DTD SVG 20010904//EN"
 "http://www.w3.org/TR/2001/REC-SVG-20010904/DTD/svg10.dtd">
<svg version="1.0" xmlns="http://www.w3.org/2000/svg"
 width="300.000000pt" height="300.000000pt" viewBox="0 0 300.000000 300.000000"
 preserveAspectRatio="xMidYMid meet">
<metadata>
Created by potrace 1.11, written by Peter Selinger 2001-2013
</metadata>
<g transform="translate(0.000000,300.000000) scale(0.100000,-0.100000)"
fill="#000000" stroke="none">
<path d="M0 2702 c0 -15 9 -21 41 -25 23 -3 51 -15 63 -27 21 -20 21 -24 24
-743 2 -397 0 -736 -3 -754 -8 -44 -36 -75 -71 -78 -16 -2 -32 -3 -35 -4 -4
-1 -9 -10 -12 -21 -4 -17 0 -20 24 -20 37 -1 254 -1 364 0 84 0 85 0 68 19
-10 10 -33 26 -50 35 -22 11 -35 27 -41 49 -5 17 -8 370 -8 782 l1 750 50 1
c83 2 145 -19 186 -63 57 -62 81 -137 85 -273 8 -280 -85 -441 -258 -449 -33
-2 -18 -38 83 -206 282 -470 516 -766 779 -987 84 -71 249 -188 265 -188 3 0
22 -10 43 -23 91 -57 322 -140 449 -162 264 -44 514 -25 705 55 75 31 168 84
224 127 23 18 26 24 15 32 -10 6 -30 -1 -67 -25 -203 -130 -481 -164 -779 -94
-87 21 -211 62 -259 87 -70 36 -306 189 -366 238 -215 174 -443 453 -673 825
-136 220 -177 290 -177 304 0 6 16 20 36 31 54 29 140 128 173 199 60 130 60
300 1 416 -30 59 -91 122 -147 152 -97 52 -130 57 -443 58 -278 1 -290 0 -290
-18z"/>
</g>
</svg>
